<svg width="360" height="218" viewBox="0 0 360 218" fill="none" xmlns="http://www.w3.org/2000/svg">
<path fill-rule="evenodd" clip-rule="evenodd" d="M245.629 76.5986C321.848 64.5249 388.429 -22.942 460.068 5.74401C528.753 33.2468 554.703 126.435 554.856 200.42C554.993 266.92 482.238 307.857 460.823 370.815C439.918 432.274 483.74 518.291 432.972 558.749C382.717 598.797 309.876 543.612 245.629 542.304C183.418 541.038 120.174 577.457 63.7455 551.236C3.22849 523.114 -32.3448 460.917 -60.1048 400.233C-90.9004 332.913 -130.393 256.355 -102.521 187.773C-74.8273 119.628 5.38433 89.0459 75.4556 66.6701C130.942 48.9518 188.1 85.7117 245.629 76.5986Z" fill="#B28DFF" fill-opacity="0.5"/>
<path fill-rule="evenodd" clip-rule="evenodd" d="M154.455 40.2158C217.601 45.4827 292.217 31.1692 337.431 73.9031C382.913 116.89 353.308 193.117 376.631 250.204C398.043 302.615 466.987 334.738 467 391.052C467.013 447.699 422.956 498.043 376.696 533.088C334.199 565.283 277.545 568.833 223.866 575.244C177.701 580.758 133.671 571.908 87.364 567.644C28.7612 562.249 -35.599 578.665 -84.3181 546.87C-136.392 512.885 -182.144 454.375 -178.831 393.921C-175.497 333.092 -89.0445 307.527 -68.0507 250.059C-43.521 182.913 -102.944 91.4009 -50.1141 41.5778C-0.410904 -5.29676 85.1143 34.432 154.455 40.2158Z" fill="#FFB5E8" fill-opacity="0.5"/>
<path fill-rule="evenodd" clip-rule="evenodd" d="M197.192 121.483C270.067 124.055 345.345 100.076 411.548 124.972C481.222 151.174 533.391 202.702 564.689 259.686C595.844 316.409 592.087 379.612 585.398 441.494C578.367 506.536 586.869 585.398 524.98 627.015C462.19 669.238 366.737 632.351 286.241 642.659C219.547 651.2 159.028 696.551 93.8524 682.223C28.5018 667.856 1.95837 605.901 -48.3735 569.097C-108.049 525.46 -213.616 509.963 -229.246 445.962C-244.707 382.653 -153.817 336.748 -119.311 278.618C-85.7889 222.147 -95.2925 142.092 -29.4663 109.411C36.4867 76.6675 119.985 118.759 197.192 121.483Z" fill="#FFABAB" fill-opacity="0.5"/>
<path fill-rule="evenodd" clip-rule="evenodd" d="M336.616 136.495C443.525 145.597 471.749 222.088 536.732 272.033C597.537 318.768 709.973 353.802 694.565 411.611C678.677 471.226 569.379 506.6 469.564 524.049C387.004 538.482 309.235 512.058 229.603 492.896C140.174 471.376 30.2526 461.537 -6.07241 409.596C-47.4198 350.475 -18.8493 281.857 45.9144 230.244C114.48 175.602 221.139 126.663 336.616 136.495Z" fill="#6EB5FF" fill-opacity="0.5"/>
</svg>
